<mxfile host="app.diagrams.net" modified="2024-06-18T05:48:26.410Z" agent="Mozilla/5.0 (X11; Linux x86_64) AppleWebKit/537.36 (KHTML, like Gecko) Chrome/125.0.0.0 Safari/537.36" version="24.5.5" etag="kH_Z0qvYKrfq0wEwx14K" type="github">
  <diagram name="PÃ¡gina-1" id="OMwXpYNd-sN6mXOZNseD">
    <mxGraphModel>
      <root>
        <mxCell id="0" />
        <mxCell id="1" parent="0" />
      </root>
    </mxGraphModel>
  </diagram>
</mxfile>
